<svg xmlns="http://www.w3.org/2000/svg" viewBox="0 0 24 24" fill="none" id="icon"><path d="M24 12c0 6.627-5.373 12-12 12S0 18.627 0 12 5.373 0 12 0s12 5.373 12 12Z" fill="#B22234"/><path fill-rule="evenodd" clip-rule="evenodd" d="M5.364 2A11.898 11.898 0 0 1 10.19.136V2h8.446a12.048 12.048 0 0 1 2.142 1.818H10.19v1.818h11.986c.36.575.674 1.183.933 1.819H10.19v1.818h13.5c.137.59.23 1.197.278 1.818H10.19v1.818h13.777c-.047.62-.14 1.228-.277 1.818H.311A11.927 11.927 0 0 1 0 12c0-1.609.316-3.144.89-4.545l.039-.092a11.951 11.951 0 0 1 2.353-3.61A12.133 12.133 0 0 1 5.364 2ZM.891 16.545h22.218a11.94 11.94 0 0 1-.933 1.819H1.824a12.022 12.022 0 0 1-.933-1.819Zm2.33 3.637h17.557A12.048 12.048 0 0 1 18.636 22H5.364a12.085 12.085 0 0 1-2.142-1.818Z" fill="#fff"/><path fill-rule="evenodd" clip-rule="evenodd" d="M10.19.136a11.92 11.92 0 0 0-4.203 1.477l.09.277-.25-.183c-.498.3-.973.635-1.421 1.001l.154.475-.385-.281c-.443.381-.858.795-1.241 1.236l.11.337-.244-.18a11.995 11.995 0 0 0-1.938 3.23H.93l.166-.51.166.51h.534l-.431.317.166.51-.435-.318-.434.318.165-.51-.068-.05a11.95 11.95 0 0 0-.744 3.61H.28l-.275.2a12.218 12.218 0 0 0-.004.595l.01.032-.01-.007c.004.235.016.469.033.701H10.19V.136ZM1.096 9.6l.166.51h.534l-.431.317.166.51-.435-.318-.434.318.165-.51-.43-.317H.93l.166-.51Zm1.516-3.877-.165.51h-.538l.435.317-.166.51.434-.318.431.318-.165-.51.434-.317h-.534l-.166-.51Zm-.165 3.094.165-.51.166.51h.534l-.434.318.165.51-.43-.318-.435.317.166-.51-.435-.317h.538Zm.331 2.585-.166-.51-.165.51h-.538l.435.317-.166.51.434-.318.431.318-.165-.51.434-.317h-.534ZM4.125 4.43l-.165.51h-.534l.434.317-.165.51.43-.318.435.317-.166-.51.435-.317H4.29l-.166-.51ZM3.96 7.525l.165-.51.166.51h.538l-.435.317.166.51-.435-.318-.43.318.165-.51-.434-.317h.534Zm.331 2.585-.166-.51-.165.51h-.534l.434.317-.165.51.43-.318.435.318-.166-.51.435-.317H4.29Zm1.352-6.972-.166.51h-.534l.431.317-.166.51.435-.318.434.318-.165-.51.43-.317H5.81l-.166-.51Zm-.166 3.095.166-.51.166.51h.534l-.431.317.165.51-.434-.318-.435.318.166-.51-.43-.317h.533Zm.166 2.075-.166.51h-.534l.431.317-.166.51.435-.318.434.317-.165-.51.43-.317H5.81l-.166-.51Zm0 2.584.166.51h.534l-.431.317.165.51-.434-.318-.435.318.166-.51-.43-.317h.533l.166-.51ZM7.16 1.846l-.165.51h-.538l.435.317-.166.51.434-.318.431.318-.166-.51.435-.317h-.534l-.166-.51ZM6.995 4.94l.165-.51.166.51h.534l-.435.318.166.51-.43-.318-.435.317.166-.51-.435-.317h.538Zm.165 2.075-.165.51h-.538l.435.317-.166.51.434-.318.431.318-.166-.51.435-.317h-.534l-.166-.51Zm0 2.585.166.51h.534l-.435.317.166.51-.43-.318-.435.318.166-.51-.435-.317h.538l.165-.51Zm1.248-8.22-.166.51.431-.317.435.317-.166-.51.435-.317h-.538l-.166-.51-.165.51h-.534l.434.318Zm.1 2.268.165-.51.166.51h.538l-.435.317.166.51-.435-.318-.43.318.165-.51-.434-.317h.534Zm.165 2.075-.165.51h-.534l.434.317-.166.51.431-.318.435.318-.166-.51.435-.317h-.538l-.166-.51Zm-.165 3.094.165-.51.166.51h.538l-.435.318.166.51-.435-.318-.43.317.165-.51-.434-.317h.534Zm.33 2.585-.165-.51-.165.51h-.534l.434.317-.166.51.431-.318.435.318-.166-.51.435-.317h-.538Z" fill="#3C3B6E"/></svg>